<?xml version="1.0" standalone="no"?>
<!DOCTYPE svg PUBLIC "-//W3C//DTD SVG 20010904//EN"
 "http://www.w3.org/TR/2001/REC-SVG-20010904/DTD/svg10.dtd">
<svg version="1.0" xmlns="http://www.w3.org/2000/svg"
 width="637.000000pt" height="637.000000pt" viewBox="0 0 637.000000 637.000000"
 preserveAspectRatio="xMidYMid meet">
<metadata>
Created by potrace 1.11, written by Peter Selinger 2001-2013
</metadata>
<g transform="translate(0.000000,637.000000) scale(0.100000,-0.100000)"
fill="#000000" stroke="none">
<path d="M1132 6288 c-23 -11 -58 -38 -76 -59 -48 -57 -67 -125 -72 -264 -6
-151 -32 -274 -79 -380 -7 -16 -17 -48 -21 -70 -4 -22 -17 -63 -30 -92 -29
-66 -51 -73 -248 -73 -164 0 -217 -10 -247 -48 -23 -30 -24 -64 -2 -139 18
-60 20 -157 8 -301 -6 -68 -4 -83 33 -190 68 -204 79 -322 41 -479 -20 -81
-21 -97 -10 -203 6 -63 25 -194 41 -290 21 -119 32 -226 36 -335 6 -167 5
-178 -50 -420 -9 -38 -16 -107 -16 -152 0 -45 -4 -84 -9 -87 -5 -3 -19 -27
-32 -53 -20 -41 -24 -70 -30 -198 -5 -126 -10 -158 -29 -200 -20 -44 -24 -73
-31 -230 -6 -157 -13 -208 -53 -400 -49 -238 -63 -342 -52 -399 8 -44 117
-165 170 -190 52 -24 112 -20 181 14 62 30 115 37 159 20 45 -17 49 -60 43
-453 l-5 -357 31 -16 c42 -22 137 -29 194 -14 27 7 91 25 143 41 149 44 196
51 300 45 52 -3 182 -9 288 -12 202 -6 245 0 327 46 97 54 186 62 340 29 79
-17 125 -20 230 -17 77 2 138 8 146 14 8 6 32 17 54 24 22 7 54 21 70 30 50
28 126 50 171 50 60 0 131 -26 168 -61 56 -54 135 -88 251 -108 39 -7 86 -17
106 -22 20 -5 49 -9 65 -9 16 0 97 -22 179 -50 120 -40 163 -50 218 -50 88 0
120 15 187 86 69 74 77 89 100 177 l18 72 143 7 c143 6 243 16 369 38 216 36
279 47 355 59 33 5 96 17 140 26 66 14 133 17 385 17 180 -1 321 3 344 9 22 6
52 23 68 39 25 26 28 35 28 99 0 62 -29 205 -47 234 -8 13 -21 122 -32 262 -8
99 -40 251 -71 330 -40 102 -63 226 -69 365 l-6 145 -49 99 -48 98 6 102 c3
55 8 121 11 146 5 37 1 53 -20 90 -67 116 -69 126 -75 285 l-6 150 -53 110
c-30 61 -56 128 -59 151 -4 36 1 47 47 108 51 67 91 142 91 169 0 8 7 34 15
58 38 106 52 282 65 814 5 204 12 417 15 474 4 57 4 114 1 126 -3 12 -29 46
-58 74 -40 40 -66 56 -116 71 -35 11 -79 20 -98 20 -40 0 -174 34 -220 56 -51
24 -58 51 -64 244 l-5 175 -34 49 c-45 65 -54 149 -22 218 26 59 27 92 1 118
-32 32 -98 26 -214 -19 -86 -34 -118 -41 -221 -49 -104 -8 -135 -16 -230 -52
-100 -38 -116 -41 -175 -36 -254 21 -227 25 -355 -46 -80 -45 -144 -58 -280
-58 -131 0 -199 -11 -271 -46 l-51 -24 -99 31 c-120 37 -173 51 -469 124 -347
86 -568 141 -695 175 -104 28 -248 65 -355 90 -172 41 -415 70 -580 69 -80 0
-109 -4 -143 -21z m443 -114 c191 -23 377 -64 675 -149 146 -42 402 -110 570
-152 309 -76 362 -90 775 -213 127 -37 313 -89 415 -115 102 -25 253 -66 335
-90 211 -62 346 -86 474 -84 118 1 133 -3 299 -84 94 -46 119 -53 292 -81 52
-8 122 -26 155 -40 33 -13 86 -27 118 -31 99 -13 116 -65 81 -254 -10 -54 -14
-112 -11 -156 10 -140 -20 -695 -49 -892 -26 -179 -65 -267 -134 -300 -55 -26
-149 -21 -252 16 -48 17 -113 34 -144 37 -98 12 -142 72 -219 295 -62 180
-120 297 -200 404 -37 50 -87 131 -112 180 -80 161 -108 178 -448 260 -99 24
-241 59 -315 79 -267 69 -420 86 -630 67 -332 -29 -594 -103 -734 -210 -73
-54 -464 -446 -515 -514 -81 -110 -97 -175 -111 -428 -10 -182 -9 -174 -81
-409 -17 -53 -19 -82 -15 -157 11 -180 89 -486 158 -618 34 -66 43 -93 48
-156 5 -66 12 -86 48 -146 23 -39 44 -90 48 -114 4 -24 21 -61 38 -84 17 -22
58 -87 90 -145 108 -191 220 -341 286 -383 14 -9 72 -32 129 -52 112 -39 137
-52 193 -104 21 -19 59 -48 85 -65 75 -49 88 -84 87 -241 0 -129 -1 -131 -37
-205 -33 -68 -37 -83 -37 -156 0 -97 -9 -109 -90 -119 -76 -9 -194 8 -463 66
-406 87 -525 119 -842 224 -104 35 -242 80 -305 100 -133 43 -178 65 -314 148
-184 113 -261 129 -378 82 -84 -34 -131 -33 -168 3 -44 44 -46 85 -17 241 14
75 33 186 42 246 16 109 39 199 57 222 6 8 5 25 -2 49 -16 47 -8 151 19 264
12 47 26 144 31 215 12 151 20 191 48 237 16 27 21 58 26 168 7 150 31 277 72
372 15 35 26 73 26 86 -6 135 -5 148 28 227 35 87 39 121 26 260 -7 79 -5 108
19 229 23 117 26 155 21 230 -6 76 -3 103 14 161 11 39 29 135 41 215 11 80
30 204 43 275 13 72 27 168 30 215 6 99 13 123 94 330 80 205 102 291 108 425
10 227 23 283 78 316 26 16 51 19 151 19 65 0 178 -7 250 -16z m3773 -2780
c19 -4 60 -35 114 -88 79 -75 86 -86 108 -156 68 -212 -12 -460 -160 -500 -94
-25 -342 56 -427 140 -79 78 -128 210 -121 324 9 137 83 229 214 270 50 15
215 21 272 10z m-1152 -145 c41 -19 96 -77 124 -129 8 -14 17 -75 21 -136 5
-79 12 -120 25 -143 47 -83 53 -98 54 -132 0 -30 -9 -47 -53 -96 -29 -32 -61
-81 -71 -108 -29 -79 -49 -95 -116 -95 -32 0 -77 7 -101 15 -36 13 -52 14 -96
4 -144 -32 -365 72 -431 203 -35 71 -27 143 19 176 23 16 36 61 44 152 7 74 8
76 59 126 147 144 400 223 522 163z m-1404 -734 c40 -8 111 -25 158 -37 76
-20 90 -28 128 -69 58 -63 126 -91 349 -144 204 -49 312 -57 387 -30 36 13 45
12 100 -7 45 -16 85 -21 151 -21 123 0 238 32 440 121 50 21 139 53 198 71 59
18 146 50 193 73 57 27 103 42 142 45 115 11 230 -35 258 -103 14 -32 13 -40
-17 -125 -28 -80 -31 -101 -27 -167 3 -41 1 -90 -5 -109 -13 -42 -54 -86 -102
-109 -29 -14 -53 -38 -70 -71 -1 -2 -37 -10 -81 -19 -43 -8 -122 -35 -174 -60
-66 -30 -121 -48 -179 -56 -82 -13 -84 -14 -105 -53 -28 -51 -59 -127 -139
-345 -112 -302 -137 -399 -137 -520 0 -59 -5 -78 -34 -134 -32 -61 -35 -73
-33 -144 2 -92 -20 -138 -81 -168 -72 -36 -164 -25 -450 54 -438 122 -460 142
-416 382 10 59 13 112 9 175 -8 108 2 168 60 371 50 172 68 290 59 382 -6 52
-11 66 -35 87 -38 31 -111 45 -234 43 -111 -2 -122 1 -275 82 -156 82 -235
187 -294 394 -33 114 -33 136 3 170 57 55 128 66 253 41z"/>
</g>
</svg>
